<svg width="16" height="20" viewBox="0 0 16 20" fill="none" xmlns="http://www.w3.org/2000/svg">
<path d="M10.9854 0C14.0478 0 16 1.43519 16 4.25781V18.3311C16 18.7735 15.8285 19.1978 15.5234 19.5107C15.2181 19.8238 14.8033 20.0001 14.3604 20C14.0962 19.9956 13.8362 19.9288 13.5859 19.7969L7.97363 16.6631L2.38477 19.8037C1.71162 20.1624 0.895913 19.9967 0.384766 19.3975L0.286133 19.2715L0.192383 19.1172C0.070272 18.8781 0.00449816 18.613 0 18.3311V4.43457C0 1.49952 1.90946 0 5.01465 0H10.9854ZM5.01465 1.44727C2.61956 1.44727 1.41211 2.39601 1.41211 4.43457V18.3193C1.41289 18.3632 1.42365 18.406 1.41211 18.3896L1.44922 18.4521C1.51379 18.5422 1.63502 18.5713 1.71973 18.5264L7.30664 15.3887C7.72308 15.158 8.22508 15.1579 8.64355 15.3896L14.2461 18.5176C14.2885 18.5399 14.3356 18.552 14.3721 18.5527C14.4293 18.5527 14.4839 18.5288 14.5244 18.4873C14.5649 18.4458 14.5879 18.3897 14.5879 18.3311V4.25781C14.5879 2.35804 13.3497 1.44727 10.9854 1.44727H5.01465ZM11.4082 6.31641C11.7978 6.31659 12.114 6.64058 12.1143 7.04004C12.1143 7.40643 11.8484 7.70978 11.5039 7.75781L11.4082 7.76465H4.54004C4.15029 7.76444 3.83398 7.43969 3.83398 7.04004C3.83421 6.67388 4.10001 6.37128 4.44434 6.32324L4.54004 6.31641H11.4082Z" fill="#2E2E5D"/>
</svg>
