<svg width="343" height="206" viewBox="0 0 343 206" fill="none" xmlns="http://www.w3.org/2000/svg">
<g clip-path="url(#clip0_60_1721)">
<rect width="343" height="206" rx="8" fill="black"/>
<g opacity="0.25">
<path fill-rule="evenodd" clip-rule="evenodd" d="M121.756 202.631L138.93 103.827H166.396L149.211 202.631H121.756" fill="#666666"/>
<path fill-rule="evenodd" clip-rule="evenodd" d="M248.828 106.259C243.387 104.256 234.861 102.11 224.211 102.11C197.073 102.11 177.953 115.51 177.791 134.715C177.639 148.913 191.44 156.834 201.858 161.56C212.548 166.401 216.144 169.49 216.092 173.815C216.025 180.437 207.554 183.464 199.659 183.464C188.666 183.464 182.827 181.967 173.807 178.278L170.267 176.707L166.412 198.825C172.828 201.583 184.692 203.973 197.007 204.096C225.881 204.096 244.622 190.849 244.836 170.34C244.941 159.101 237.621 150.546 221.777 143.496C212.176 138.925 206.296 135.874 206.358 131.246C206.358 127.139 211.334 122.748 222.088 122.748C231.069 122.612 237.575 124.531 242.644 126.533L245.105 127.673L248.828 106.259" fill="#666666"/>
<path fill-rule="evenodd" clip-rule="evenodd" d="M319.259 103.921H298.036C291.461 103.921 286.541 105.68 283.653 112.115L242.862 202.664H271.704C271.704 202.664 276.42 190.488 277.488 187.815C280.64 187.815 308.656 187.857 312.662 187.857C313.484 191.315 316.005 202.664 316.005 202.664H341.491L319.259 103.921M285.392 167.605C287.662 161.912 296.335 139.985 296.335 139.985C296.171 140.248 298.59 134.265 299.976 130.555L301.833 139.075C301.833 139.075 307.093 162.659 308.191 167.605H285.392" fill="#666666"/>
<path fill-rule="evenodd" clip-rule="evenodd" d="M98.7199 103.898L71.8288 171.277L68.9643 157.583C63.959 141.798 48.3621 124.697 30.9237 116.137L55.512 202.546L84.5727 202.514L127.814 103.898H98.7199" fill="#666666"/>
<path fill-rule="evenodd" clip-rule="evenodd" d="M46.8834 103.838H2.59448L2.24316 105.893C36.7011 114.072 59.4999 133.835 68.9642 157.583L59.3339 112.179C57.67 105.922 52.8481 104.056 46.8834 103.838" fill="#666666"/>
</g>
<g clip-path="url(#clip1_60_1721)">
<path d="M268.965 162.417V162.424H270.069V162.417C270.069 161.338 270.793 160.621 271.866 160.621C272.875 160.621 273.656 161.326 273.656 162.24C273.656 162.976 273.37 163.471 272.189 164.753L269.022 168.213V169H274.951V167.972H270.66V167.87L272.862 165.502C274.367 163.89 274.798 163.147 274.798 162.195C274.798 160.742 273.542 159.625 271.897 159.625C270.196 159.625 268.965 160.792 268.965 162.417ZM276.823 162.417V162.424H277.928V162.417C277.928 161.338 278.651 160.621 279.724 160.621C280.733 160.621 281.514 161.326 281.514 162.24C281.514 162.976 281.229 163.471 280.048 164.753L276.88 168.213V169H282.809V167.972H278.518V167.87L280.721 165.502C282.225 163.89 282.657 163.147 282.657 162.195C282.657 160.742 281.4 159.625 279.756 159.625C278.055 159.625 276.823 160.792 276.823 162.417ZM288.351 170.949L291.715 159.44H290.75L287.386 170.949H288.351ZM296.349 162.417V162.424H297.453V162.417C297.453 161.338 298.177 160.621 299.25 160.621C300.259 160.621 301.04 161.326 301.04 162.24C301.04 162.976 300.754 163.471 299.573 164.753L296.406 168.213V169H302.334V167.972H298.043V167.87L300.246 165.502C301.75 163.89 302.182 163.147 302.182 162.195C302.182 160.742 300.925 159.625 299.281 159.625C297.58 159.625 296.349 160.792 296.349 162.417ZM307.343 169.216C309.399 169.216 310.58 167.477 310.58 164.436C310.58 161.402 309.38 159.625 307.343 159.625C305.292 159.625 304.093 161.396 304.093 164.417C304.093 167.464 305.28 169.216 307.343 169.216ZM307.343 168.219C305.991 168.219 305.242 166.867 305.242 164.417C305.242 161.999 306.003 160.627 307.343 160.627C308.682 160.627 309.431 161.986 309.431 164.417C309.431 166.874 308.695 168.219 307.343 168.219Z" fill="white"/>
<path d="M272.821 148.104H269.78V146.201H272.658V145.348H269.78V143.555H272.821V142.659H268.795V149H272.821V148.104ZM273.84 149H274.93L276.508 146.653H276.583L278.138 149H279.29L277.176 145.836L279.329 142.659H278.222L276.653 145.049H276.578L275.036 142.659H273.862L275.958 145.81L273.84 149ZM280.52 142.659V149H281.504V146.864H282.972C284.216 146.864 285.095 146.012 285.095 144.772C285.095 143.516 284.242 142.659 283.003 142.659H280.52ZM281.504 143.529H282.744C283.609 143.529 284.088 143.968 284.088 144.772C284.088 145.559 283.592 145.999 282.744 145.999H281.504V143.529ZM287.349 149V142.659H286.365V149H287.349ZM289.924 143.524H291.313C292.073 143.524 292.539 143.942 292.539 144.632C292.539 145.339 292.1 145.744 291.339 145.744H289.924V143.524ZM289.924 146.583H291.313L292.605 149H293.743L292.319 146.42C293.093 146.157 293.55 145.462 293.55 144.61C293.55 143.419 292.728 142.659 291.449 142.659H288.94V149H289.924V146.583ZM298.977 148.104H295.936V146.201H298.814V145.348H295.936V143.555H298.977V142.659H294.952V149H298.977V148.104ZM300.102 147.295C300.172 148.429 301.117 149.154 302.523 149.154C304.026 149.154 304.967 148.394 304.967 147.181C304.967 146.227 304.431 145.7 303.13 145.396L302.431 145.225C301.605 145.032 301.271 144.772 301.271 144.32C301.271 143.749 301.79 143.375 302.567 143.375C303.306 143.375 303.815 143.74 303.908 144.324H304.866C304.809 143.256 303.868 142.505 302.581 142.505C301.196 142.505 300.273 143.256 300.273 144.386C300.273 145.317 300.796 145.871 301.943 146.139L302.761 146.337C303.6 146.535 303.969 146.825 303.969 147.308C303.969 147.871 303.389 148.279 302.598 148.279C301.75 148.279 301.161 147.897 301.078 147.295H300.102Z" fill="#8A8A8F"/>
</g>
<path d="M36.345 159.939L33.394 165.581V169H32.211V165.581L29.247 159.939H30.56L32.796 164.528L35.032 159.939H36.345ZM40.6998 169.117C40.0325 169.117 39.4258 168.965 38.8798 168.662C38.3425 168.359 37.9178 167.93 37.6058 167.375C37.3025 166.812 37.1508 166.162 37.1508 165.425C37.1508 164.697 37.3068 164.056 37.6188 163.501C37.9395 162.938 38.3728 162.509 38.9188 162.214C39.4648 161.911 40.0758 161.759 40.7518 161.759C41.4278 161.759 42.0388 161.911 42.5848 162.214C43.1308 162.509 43.5598 162.933 43.8718 163.488C44.1925 164.043 44.3528 164.688 44.3528 165.425C44.3528 166.162 44.1881 166.812 43.8588 167.375C43.5381 167.93 43.1005 168.359 42.5458 168.662C41.9911 168.965 41.3758 169.117 40.6998 169.117ZM40.6998 168.077C41.1245 168.077 41.5231 167.977 41.8958 167.778C42.2685 167.579 42.5675 167.28 42.7928 166.881C43.0268 166.482 43.1438 165.997 43.1438 165.425C43.1438 164.853 43.0311 164.368 42.8058 163.969C42.5805 163.57 42.2858 163.276 41.9218 163.085C41.5578 162.886 41.1635 162.786 40.7388 162.786C40.3055 162.786 39.9068 162.886 39.5428 163.085C39.1875 163.276 38.9015 163.57 38.6848 163.969C38.4681 164.368 38.3598 164.853 38.3598 165.425C38.3598 166.006 38.4638 166.495 38.6718 166.894C38.8885 167.293 39.1745 167.592 39.5298 167.791C39.8851 167.982 40.2751 168.077 40.6998 168.077ZM52.2262 161.876V169H51.0432V167.947C50.8179 168.311 50.5016 168.597 50.0942 168.805C49.6956 169.004 49.2536 169.104 48.7682 169.104C48.2136 169.104 47.7152 168.991 47.2732 168.766C46.8312 168.532 46.4802 168.185 46.2202 167.726C45.9689 167.267 45.8432 166.708 45.8432 166.049V161.876H47.0132V165.893C47.0132 166.595 47.1909 167.137 47.5462 167.518C47.9016 167.891 48.3869 168.077 49.0022 168.077C49.6349 168.077 50.1332 167.882 50.4972 167.492C50.8612 167.102 51.0432 166.534 51.0432 165.789V161.876H52.2262ZM55.4067 163.033C55.6147 162.626 55.9093 162.309 56.2907 162.084C56.6807 161.859 57.153 161.746 57.7077 161.746V162.968H57.3957C56.0697 162.968 55.4067 163.687 55.4067 165.126V169H54.2237V161.876H55.4067V163.033ZM69.6631 169H68.4801L63.7221 161.785V169H62.5391V159.926H63.7221L68.4801 167.128V159.926H69.6631V169ZM71.2377 165.412C71.2377 164.684 71.385 164.047 71.6797 163.501C71.9744 162.946 72.3774 162.517 72.8887 162.214C73.4087 161.911 73.985 161.759 74.6177 161.759C75.2417 161.759 75.7834 161.893 76.2427 162.162C76.702 162.431 77.0444 162.769 77.2697 163.176V161.876H78.4657V169H77.2697V167.674C77.0357 168.09 76.6847 168.437 76.2167 168.714C75.7574 168.983 75.22 169.117 74.6047 169.117C73.972 169.117 73.4 168.961 72.8887 168.649C72.3774 168.337 71.9744 167.899 71.6797 167.336C71.385 166.773 71.2377 166.131 71.2377 165.412ZM77.2697 165.425C77.2697 164.888 77.1614 164.42 76.9447 164.021C76.728 163.622 76.4334 163.319 76.0607 163.111C75.6967 162.894 75.2937 162.786 74.8517 162.786C74.4097 162.786 74.0067 162.89 73.6427 163.098C73.2787 163.306 72.9884 163.609 72.7717 164.008C72.555 164.407 72.4467 164.875 72.4467 165.412C72.4467 165.958 72.555 166.435 72.7717 166.842C72.9884 167.241 73.2787 167.548 73.6427 167.765C74.0067 167.973 74.4097 168.077 74.8517 168.077C75.2937 168.077 75.6967 167.973 76.0607 167.765C76.4334 167.548 76.728 167.241 76.9447 166.842C77.1614 166.435 77.2697 165.962 77.2697 165.425ZM89.0319 161.746C89.5865 161.746 90.0805 161.863 90.5139 162.097C90.9472 162.322 91.2895 162.665 91.5409 163.124C91.7922 163.583 91.9179 164.142 91.9179 164.801V169H90.7479V164.97C90.7479 164.259 90.5702 163.718 90.2149 163.345C89.8682 162.964 89.3959 162.773 88.7979 162.773C88.1825 162.773 87.6929 162.972 87.3289 163.371C86.9649 163.761 86.7829 164.329 86.7829 165.074V169H85.6129V164.97C85.6129 164.259 85.4352 163.718 85.0799 163.345C84.7332 162.964 84.2609 162.773 83.6629 162.773C83.0475 162.773 82.5579 162.972 82.1939 163.371C81.8299 163.761 81.6479 164.329 81.6479 165.074V169H80.4649V161.876H81.6479V162.903C81.8819 162.53 82.1939 162.244 82.5839 162.045C82.9825 161.846 83.4202 161.746 83.8969 161.746C84.4949 161.746 85.0235 161.88 85.4829 162.149C85.9422 162.418 86.2845 162.812 86.5099 163.332C86.7092 162.829 87.0385 162.439 87.4979 162.162C87.9572 161.885 88.4685 161.746 89.0319 161.746ZM100.358 165.165C100.358 165.39 100.345 165.629 100.319 165.88H94.6254C94.6688 166.582 94.9071 167.132 95.3404 167.531C95.7824 167.921 96.3154 168.116 96.9394 168.116C97.4508 168.116 97.8754 167.999 98.2134 167.765C98.5601 167.522 98.8028 167.202 98.9414 166.803H100.215C100.025 167.488 99.6434 168.047 99.0714 168.48C98.4994 168.905 97.7888 169.117 96.9394 169.117C96.2634 169.117 95.6568 168.965 95.1194 168.662C94.5908 168.359 94.1748 167.93 93.8714 167.375C93.5681 166.812 93.4164 166.162 93.4164 165.425C93.4164 164.688 93.5638 164.043 93.8584 163.488C94.1531 162.933 94.5648 162.509 95.0934 162.214C95.6308 161.911 96.2461 161.759 96.9394 161.759C97.6154 161.759 98.2134 161.906 98.7334 162.201C99.2534 162.496 99.6521 162.903 99.9294 163.423C100.215 163.934 100.358 164.515 100.358 165.165ZM99.1364 164.918C99.1364 164.467 99.0368 164.082 98.8374 163.761C98.6381 163.432 98.3651 163.185 98.0184 163.02C97.6804 162.847 97.3034 162.76 96.8874 162.76C96.2894 162.76 95.7781 162.951 95.3534 163.332C94.9374 163.713 94.6991 164.242 94.6384 164.918H99.1364Z" fill="white"/>
<path d="M28.387 146.859C28.387 146.247 28.525 145.698 28.801 145.212C29.077 144.72 29.452 144.336 29.926 144.06C30.406 143.784 30.937 143.646 31.519 143.646C32.203 143.646 32.8 143.811 33.31 144.141C33.82 144.471 34.192 144.939 34.426 145.545H33.445C33.271 145.167 33.019 144.876 32.689 144.672C32.365 144.468 31.975 144.366 31.519 144.366C31.081 144.366 30.688 144.468 30.34 144.672C29.992 144.876 29.719 145.167 29.521 145.545C29.323 145.917 29.224 146.355 29.224 146.859C29.224 147.357 29.323 147.795 29.521 148.173C29.719 148.545 29.992 148.833 30.34 149.037C30.688 149.241 31.081 149.343 31.519 149.343C31.975 149.343 32.365 149.244 32.689 149.046C33.019 148.842 33.271 148.551 33.445 148.173H34.426C34.192 148.773 33.82 149.238 33.31 149.568C32.8 149.892 32.203 150.054 31.519 150.054C30.937 150.054 30.406 149.919 29.926 149.649C29.452 149.373 29.077 148.992 28.801 148.506C28.525 148.02 28.387 147.471 28.387 146.859ZM39.3531 148.605H36.6171L36.1131 150H35.2491L37.5171 143.763H38.4621L40.7211 150H39.8571L39.3531 148.605ZM39.1191 147.939L37.9851 144.771L36.8511 147.939H39.1191ZM45.0126 150L43.5186 147.435H42.5286V150H41.7096V143.727H43.7346C44.2086 143.727 44.6076 143.808 44.9316 143.97C45.2616 144.132 45.5076 144.351 45.6696 144.627C45.8316 144.903 45.9126 145.218 45.9126 145.572C45.9126 146.004 45.7866 146.385 45.5346 146.715C45.2886 147.045 44.9166 147.264 44.4186 147.372L45.9936 150H45.0126ZM42.5286 146.778H43.7346C44.1786 146.778 44.5116 146.67 44.7336 146.454C44.9556 146.232 45.0666 145.938 45.0666 145.572C45.0666 145.2 44.9556 144.912 44.7336 144.708C44.5176 144.504 44.1846 144.402 43.7346 144.402H42.5286V146.778ZM49.1382 143.727C49.8222 143.727 50.4132 143.856 50.9112 144.114C51.4152 144.366 51.7992 144.729 52.0632 145.203C52.3332 145.677 52.4682 146.235 52.4682 146.877C52.4682 147.519 52.3332 148.077 52.0632 148.551C51.7992 149.019 51.4152 149.379 50.9112 149.631C50.4132 149.877 49.8222 150 49.1382 150H47.1852V143.727H49.1382ZM49.1382 149.325C49.9482 149.325 50.5662 149.112 50.9922 148.686C51.4182 148.254 51.6312 147.651 51.6312 146.877C51.6312 146.097 51.4152 145.488 50.9832 145.05C50.5572 144.612 49.9422 144.393 49.1382 144.393H48.0042V149.325H49.1382ZM60.7809 143.727V150H59.9619V147.156H56.7669V150H55.9479V143.727H56.7669V146.481H59.9619V143.727H60.7809ZM65.0233 150.063C64.4413 150.063 63.9103 149.928 63.4303 149.658C62.9503 149.382 62.5693 149.001 62.2873 148.515C62.0113 148.023 61.8733 147.471 61.8733 146.859C61.8733 146.247 62.0113 145.698 62.2873 145.212C62.5693 144.72 62.9503 144.339 63.4303 144.069C63.9103 143.793 64.4413 143.655 65.0233 143.655C65.6113 143.655 66.1453 143.793 66.6253 144.069C67.1053 144.339 67.4833 144.717 67.7593 145.203C68.0353 145.689 68.1733 146.241 68.1733 146.859C68.1733 147.477 68.0353 148.029 67.7593 148.515C67.4833 149.001 67.1053 149.382 66.6253 149.658C66.1453 149.928 65.6113 150.063 65.0233 150.063ZM65.0233 149.352C65.4613 149.352 65.8543 149.25 66.2023 149.046C66.5563 148.842 66.8323 148.551 67.0303 148.173C67.2343 147.795 67.3363 147.357 67.3363 146.859C67.3363 146.355 67.2343 145.917 67.0303 145.545C66.8323 145.167 66.5593 144.876 66.2113 144.672C65.8633 144.468 65.4673 144.366 65.0233 144.366C64.5793 144.366 64.1833 144.468 63.8353 144.672C63.4873 144.876 63.2113 145.167 63.0073 145.545C62.8093 145.917 62.7103 146.355 62.7103 146.859C62.7103 147.357 62.8093 147.795 63.0073 148.173C63.2113 148.551 63.4873 148.842 63.8353 149.046C64.1893 149.25 64.5853 149.352 65.0233 149.352ZM70.0735 149.334H72.2695V150H69.2545V143.727H70.0735V149.334ZM75.0923 143.727C75.7763 143.727 76.3673 143.856 76.8653 144.114C77.3693 144.366 77.7533 144.729 78.0173 145.203C78.2873 145.677 78.4223 146.235 78.4223 146.877C78.4223 147.519 78.2873 148.077 78.0173 148.551C77.7533 149.019 77.3693 149.379 76.8653 149.631C76.3673 149.877 75.7763 150 75.0923 150H73.1393V143.727H75.0923ZM75.0923 149.325C75.9023 149.325 76.5203 149.112 76.9463 148.686C77.3723 148.254 77.5853 147.651 77.5853 146.877C77.5853 146.097 77.3693 145.488 76.9373 145.05C76.5113 144.612 75.8963 144.393 75.0923 144.393H73.9583V149.325H75.0923ZM80.3216 144.393V146.49H82.6076V147.165H80.3216V149.325H82.8776V150H79.5026V143.718H82.8776V144.393H80.3216ZM87.4198 150L85.9258 147.435H84.9358V150H84.1168V143.727H86.1418C86.6158 143.727 87.0148 143.808 87.3388 143.97C87.6688 144.132 87.9148 144.351 88.0768 144.627C88.2388 144.903 88.3198 145.218 88.3198 145.572C88.3198 146.004 88.1938 146.385 87.9418 146.715C87.6958 147.045 87.3238 147.264 86.8258 147.372L88.4008 150H87.4198ZM84.9358 146.778H86.1418C86.5858 146.778 86.9188 146.67 87.1408 146.454C87.3628 146.232 87.4738 145.938 87.4738 145.572C87.4738 145.2 87.3628 144.912 87.1408 144.708C86.9248 144.504 86.5918 144.402 86.1418 144.402H84.9358V146.778Z" fill="#8A8A8F"/>
<path d="M24.3435 103.04L28.6235 110H26.5635L23.2235 104.56L20.0435 110H18.0235L22.2835 103.04L18.0035 96.06H20.0435L23.4035 101.52L26.6035 96.06H28.6435L24.3435 103.04ZM36.7654 103.04L41.0454 110H38.9854L35.6454 104.56L32.4654 110H30.4454L34.7054 103.04L30.4254 96.06H32.4654L35.8254 101.52L39.0254 96.06H41.0654L36.7654 103.04ZM49.1873 103.04L53.4673 110H51.4073L48.0673 104.56L44.8873 110H42.8673L47.1273 103.04L42.8473 96.06H44.8873L48.2473 101.52L51.4473 96.06H53.4873L49.1873 103.04ZM61.6091 103.04L65.8891 110H63.8291L60.4891 104.56L57.3091 110H55.2891L59.5491 103.04L55.2691 96.06H57.3091L60.6691 101.52L63.8691 96.06H65.9091L61.6091 103.04ZM111.355 103.04L115.635 110H113.575L110.235 104.56L107.055 110H105.035L109.295 103.04L105.015 96.06H107.055L110.415 101.52L113.615 96.06H115.655L111.355 103.04ZM123.777 103.04L128.057 110H125.997L122.657 104.56L119.477 110H117.457L121.717 103.04L117.437 96.06H119.477L122.837 101.52L126.037 96.06H128.077L123.777 103.04ZM136.199 103.04L140.479 110H138.419L135.079 104.56L131.899 110H129.879L134.139 103.04L129.859 96.06H131.899L135.259 101.52L138.459 96.06H140.499L136.199 103.04ZM148.621 103.04L152.901 110H150.841L147.501 104.56L144.321 110H142.301L146.561 103.04L142.281 96.06H144.321L147.681 101.52L150.881 96.06H152.921L148.621 103.04ZM198.367 103.04L202.647 110H200.587L197.247 104.56L194.067 110H192.047L196.307 103.04L192.027 96.06H194.067L197.427 101.52L200.627 96.06H202.667L198.367 103.04ZM210.789 103.04L215.069 110H213.009L209.669 104.56L206.489 110H204.469L208.729 103.04L204.449 96.06H206.489L209.849 101.52L213.049 96.06H215.089L210.789 103.04ZM223.211 103.04L227.491 110H225.431L222.091 104.56L218.911 110H216.891L221.151 103.04L216.871 96.06H218.911L222.271 101.52L225.471 96.06H227.511L223.211 103.04ZM235.633 103.04L239.913 110H237.853L234.513 104.56L231.333 110H229.313L233.573 103.04L229.293 96.06H231.333L234.693 101.52L237.893 96.06H239.933L235.633 103.04ZM288.279 96.96L282.719 110H280.879L286.519 97.14H278.799V95.58H288.279V96.96ZM290.257 99.18C290.35 97.9533 290.823 96.9933 291.677 96.3C292.53 95.6067 293.637 95.26 294.997 95.26C295.903 95.26 296.683 95.4267 297.337 95.76C298.003 96.08 298.503 96.52 298.837 97.08C299.183 97.64 299.357 98.2733 299.357 98.98C299.357 99.8067 299.117 100.52 298.637 101.12C298.17 101.72 297.557 102.107 296.797 102.28V102.38C297.663 102.593 298.35 103.013 298.857 103.64C299.363 104.267 299.617 105.087 299.617 106.1C299.617 106.86 299.443 107.547 299.097 108.16C298.75 108.76 298.23 109.233 297.537 109.58C296.843 109.927 296.01 110.1 295.037 110.1C293.623 110.1 292.463 109.733 291.557 109C290.65 108.253 290.143 107.2 290.037 105.84H291.797C291.89 106.64 292.217 107.293 292.777 107.8C293.337 108.307 294.083 108.56 295.017 108.56C295.95 108.56 296.657 108.32 297.137 107.84C297.63 107.347 297.877 106.713 297.877 105.94C297.877 104.94 297.543 104.22 296.877 103.78C296.21 103.34 295.203 103.12 293.857 103.12H293.397V101.6H293.877C295.103 101.587 296.03 101.387 296.657 101C297.283 100.6 297.597 99.9867 297.597 99.16C297.597 98.4533 297.363 97.8867 296.897 97.46C296.443 97.0333 295.79 96.82 294.937 96.82C294.11 96.82 293.443 97.0333 292.937 97.46C292.43 97.8867 292.13 98.46 292.037 99.18H290.257ZM302.074 102.62C302.074 100.327 302.447 98.54 303.194 97.26C303.941 95.9667 305.247 95.32 307.114 95.32C308.967 95.32 310.267 95.9667 311.014 97.26C311.761 98.54 312.134 100.327 312.134 102.62C312.134 104.953 311.761 106.767 311.014 108.06C310.267 109.353 308.967 110 307.114 110C305.247 110 303.941 109.353 303.194 108.06C302.447 106.767 302.074 104.953 302.074 102.62ZM310.334 102.62C310.334 101.46 310.254 100.48 310.094 99.68C309.947 98.8667 309.634 98.2133 309.154 97.72C308.687 97.2267 308.007 96.98 307.114 96.98C306.207 96.98 305.514 97.2267 305.034 97.72C304.567 98.2133 304.254 98.8667 304.094 99.68C303.947 100.48 303.874 101.46 303.874 102.62C303.874 103.82 303.947 104.827 304.094 105.64C304.254 106.453 304.567 107.107 305.034 107.6C305.514 108.093 306.207 108.34 307.114 108.34C308.007 108.34 308.687 108.093 309.154 107.6C309.634 107.107 309.947 106.453 310.094 105.64C310.254 104.827 310.334 103.82 310.334 102.62ZM314.413 108.54C316.106 107.18 317.433 106.067 318.393 105.2C319.353 104.32 320.159 103.407 320.813 102.46C321.479 101.5 321.813 100.56 321.813 99.64C321.813 98.7733 321.599 98.0933 321.173 97.6C320.759 97.0933 320.086 96.84 319.153 96.84C318.246 96.84 317.539 97.1267 317.033 97.7C316.539 98.26 316.273 99.0133 316.233 99.96H314.473C314.526 98.4667 314.979 97.3133 315.833 96.5C316.686 95.6867 317.786 95.28 319.133 95.28C320.506 95.28 321.593 95.66 322.393 96.42C323.206 97.18 323.613 98.2267 323.613 99.56C323.613 100.667 323.279 101.747 322.613 102.8C321.959 103.84 321.213 104.76 320.373 105.56C319.533 106.347 318.459 107.267 317.153 108.32H324.033V109.84H314.413V108.54Z" fill="#8A8A8F"/>
<path fill-rule="evenodd" clip-rule="evenodd" d="M263.247 56.5404L266.581 37.355H271.912L268.576 56.5404H263.247" fill="#666666"/>
<path fill-rule="evenodd" clip-rule="evenodd" d="M287.914 37.8271C286.857 37.4382 285.202 37.0215 283.135 37.0215C277.867 37.0215 274.156 39.6235 274.124 43.3527C274.095 46.1094 276.774 47.6474 278.796 48.5651C280.871 49.5052 281.569 50.105 281.559 50.9448C281.546 52.2307 279.902 52.8184 278.369 52.8184C276.235 52.8184 275.102 52.5277 273.351 51.8114L272.664 51.5063L271.915 55.8011C273.161 56.3366 275.464 56.8008 277.854 56.8246C283.459 56.8246 287.097 54.2524 287.139 50.27C287.159 48.0877 285.738 46.4266 282.663 45.0576C280.799 44.17 279.657 43.5776 279.669 42.679C279.669 41.8815 280.635 41.0289 282.723 41.0289C284.466 41.0024 285.729 41.3751 286.713 41.7639L287.191 41.9851L287.914 37.8271" fill="#666666"/>
<path fill-rule="evenodd" clip-rule="evenodd" d="M301.586 37.373H297.466C296.189 37.373 295.234 37.7145 294.674 38.964L286.755 56.5463H292.354C292.354 56.5463 293.27 54.1821 293.477 53.6631C294.089 53.6631 299.527 53.6712 300.305 53.6712C300.465 54.3427 300.954 56.5463 300.954 56.5463H305.901L301.586 37.373M295.011 49.7388C295.452 48.6333 297.136 44.3757 297.136 44.3757C297.104 44.4268 297.573 43.265 297.842 42.5447L298.203 44.1989C298.203 44.1989 299.224 48.7785 299.437 49.7388H295.011" fill="#666666"/>
<path fill-rule="evenodd" clip-rule="evenodd" d="M258.775 37.3687L253.555 50.4518L252.999 47.7928C252.027 44.7278 249 41.4073 245.615 39.745L250.388 56.5235L256.029 56.5173L264.423 37.3687H258.775" fill="#666666"/>
<path fill-rule="evenodd" clip-rule="evenodd" d="M248.713 37.3569H240.115L240.047 37.7561C246.736 39.3441 251.162 43.1817 252.999 47.7929L251.13 38.9766C250.807 37.7616 249.871 37.3992 248.713 37.3569" fill="#ED9F2D"/>
<rect x="24" y="24" width="44" height="36" rx="8" fill="#3B3B3B"/>
</g>
<defs>
<clipPath id="clip0_60_1721">
<rect width="343" height="206" fill="white"/>
</clipPath>
<clipPath id="clip1_60_1721">
<rect width="44" height="33" fill="white" transform="translate(268 140)"/>
</clipPath>
</defs>
</svg>
