<svg width="21" height="20" viewBox="0 0 21 20" fill="none" xmlns="http://www.w3.org/2000/svg">
<path d="M5.92672 16.9081C6.75586 16.9084 7.43549 17.6019 7.43551 18.4589C7.43551 19.3058 6.75587 19.9997 5.92672 19.9999C5.08738 19.9999 4.40719 19.3059 4.40719 18.4589C4.40722 17.6017 5.08739 16.9081 5.92672 16.9081ZM17.1679 16.9081C17.9971 16.9084 18.6767 17.6018 18.6767 18.4589C18.6767 19.3058 17.9971 19.9997 17.1679 19.9999C16.3286 19.9999 15.6484 19.3059 15.6484 18.4589C15.6484 17.6017 16.3286 16.9081 17.1679 16.9081ZM0.510706 0.640547C0.580642 0.223214 0.970225 -0.0534427 1.37985 0.00871079L3.76364 0.374922C4.10315 0.437338 4.35281 0.722434 4.38278 1.06926L4.57223 3.35539C4.60239 3.68259 4.86221 3.92743 5.1816 3.92766H18.6767C19.2861 3.9277 19.6863 4.14186 20.0859 4.61125C20.4853 5.08062 20.5547 5.75405 20.4648 6.36516L19.5156 13.0595C19.3357 14.3462 18.2571 15.2947 16.9882 15.2948H6.0859C4.75723 15.2946 3.65882 14.2549 3.54879 12.9081L2.62887 1.78312L1.12008 1.51848C0.720481 1.44703 0.44088 1.04867 0.510706 0.640547ZM12.6211 7.70207C12.2015 7.70218 11.872 8.03915 11.872 8.4677C11.8721 8.88602 12.2015 9.23321 12.6211 9.23332H15.3886C15.8083 9.23332 16.1386 8.88609 16.1386 8.4677C16.1386 8.03908 15.8083 7.70207 15.3886 7.70207H12.6211Z" fill="#D5DBDB"/>
</svg>
