<svg width="18" height="20" viewBox="0 0 18 20" fill="none" xmlns="http://www.w3.org/2000/svg">
<path d="M11.6025 0.0117188H11.7373C11.9414 0.0118018 12.137 0.0949399 12.2783 0.242188L17.3428 5.51855C17.4769 5.65823 17.5518 5.84447 17.5518 6.03809V15.2041C17.5515 17.7029 15.5263 19.8641 13.0732 19.8643H5.08398C2.50472 19.8643 0.500206 17.8045 0.5 15.2041V4.49023C0.500275 2.02929 2.59686 0.011727 5.08398 0.0117188H11.3477C11.3889 0.00469787 11.4314 0 11.4746 0C11.5183 1.76518e-05 11.5609 0.00454116 11.6025 0.0117188ZM5.08398 1.51172C3.41269 1.51173 2.00028 2.87085 2 4.49023V15.2041C2.0002 16.9851 3.34251 18.3643 5.08398 18.3643H13.0732C14.6753 18.3641 16.0515 16.8955 16.0518 15.2041V6.98242L15.1758 6.98633C14.8423 6.98592 14.4629 6.98534 14.041 6.98438C12.2716 6.98063 10.8271 5.59343 10.7295 3.84766L10.7246 3.65918V1.51074L5.08398 1.51172ZM11.2842 12.8076C11.6984 12.8076 12.0342 13.1434 12.0342 13.5576C12.0342 13.9373 11.7518 14.2511 11.3857 14.3008L11.2842 14.3076H5.8877C5.47349 14.3076 5.1377 13.9718 5.1377 13.5576C5.1377 13.178 5.41926 12.8643 5.78516 12.8145L5.8877 12.8076H11.2842ZM9.24316 7.85547C9.65721 7.85566 9.99316 8.19138 9.99316 8.60547C9.99313 8.98508 9.71071 9.29891 9.34473 9.34863L9.24316 9.35547H5.88672C5.47257 9.35542 5.13676 9.01962 5.13672 8.60547C5.13672 8.22577 5.41908 7.91197 5.78516 7.8623L5.88672 7.85547H9.24316ZM12.2246 3.65918C12.2247 4.66553 13.0386 5.48222 14.0439 5.48438L15.2305 5.4834L12.2246 2.35254V3.65918Z" fill="#2E2E5D"/>
</svg>
