<svg width="20" height="20" viewBox="0 0 20 20" fill="none" xmlns="http://www.w3.org/2000/svg">
<path d="M14.335 0C17.7386 0 20 2.42933 20 5.91602V14.084C20 17.567 17.7319 20 14.335 20H5.66602C2.26223 20 0 17.5705 0 14.084V5.91602C0 2.42952 2.26223 0 5.66602 0H14.335ZM5.66602 1.5C3.11551 1.5 1.5 3.23498 1.5 5.91602V14.084C1.5 16.765 3.11551 18.5 5.66602 18.5H14.335C16.879 18.5 18.5 16.7612 18.5 14.084V5.91602C18.5 3.23469 16.8852 1.5 14.335 1.5H5.66602ZM10 5.16406C10.3797 5.16406 10.6935 5.44642 10.7432 5.8125L10.75 5.91406V12.2686L13.2168 9.79297C13.4825 9.52632 13.8994 9.50157 14.1934 9.71875L14.2773 9.79102C14.544 10.0567 14.5687 10.4736 14.3516 10.7676L14.2793 10.8516L10.5312 14.6152C10.4969 14.6497 10.4597 14.6796 10.4209 14.7061C10.4112 14.7127 10.3997 14.7165 10.3896 14.7227C10.3598 14.7409 10.3304 14.7587 10.2988 14.7725C10.2839 14.779 10.2683 14.7835 10.2529 14.7891C10.2232 14.7997 10.1937 14.8096 10.1631 14.8164C10.1318 14.8234 10.1 14.8291 10.0674 14.832C10.0547 14.8332 10.042 14.8335 10.0293 14.834C10.0196 14.8344 10.0098 14.8359 10 14.8359C9.9895 14.8359 9.97915 14.8334 9.96875 14.833C9.94251 14.8319 9.91666 14.829 9.89062 14.8252C9.86871 14.822 9.84743 14.8176 9.82617 14.8125C9.80447 14.8073 9.78298 14.8021 9.76172 14.7949C9.74035 14.7877 9.71968 14.7795 9.69922 14.7705C9.67871 14.7615 9.65847 14.7521 9.63867 14.7412C9.61975 14.7308 9.60186 14.719 9.58398 14.707C9.57399 14.7003 9.56247 14.6957 9.55273 14.6885L9.52344 14.6631C9.51185 14.6535 9.50025 14.644 9.48926 14.6338L9.46875 14.6152L5.7207 10.8516C5.42849 10.5581 5.4293 10.0833 5.72266 9.79102C5.98949 9.52532 6.40607 9.50222 6.69922 9.7207L6.7832 9.79297L9.25 12.2705V5.91406C9.25 5.49985 9.58579 5.16406 10 5.16406Z" fill="#2E2E5D"/>
</svg>
