<svg width="19" height="23" viewBox="0 0 19 23" fill="none" xmlns="http://www.w3.org/2000/svg">
<path d="M6.63478 20.7592V17.5103C6.63478 16.681 7.27217 16.0087 8.05844 16.0087H10.9326C11.3102 16.0087 11.6723 16.1669 11.9393 16.4485C12.2063 16.7301 12.3563 17.1121 12.3563 17.5103V20.7592C12.3539 21.104 12.4821 21.4355 12.7124 21.6802C12.9427 21.9249 13.2561 22.0625 13.5829 22.0625H15.5438C16.4596 22.065 17.3388 21.683 17.9872 21.0009C18.6356 20.3187 19 19.3924 19 18.4264V9.17104C19 8.39074 18.6721 7.65058 18.1046 7.14996L11.434 1.53061C10.2737 0.545347 8.61111 0.577158 7.48539 1.60617L0.967012 7.14996C0.372741 7.63582 0.0175523 8.37818 0 9.17104V18.417C0 20.4303 1.54738 22.0625 3.45617 22.0625H5.37229C6.05123 22.0625 6.603 21.4847 6.60792 20.7686L6.63478 20.7592Z" fill="white"/>
</svg>
