<svg width="17" height="17" viewBox="0 0 17 17" fill="none" xmlns="http://www.w3.org/2000/svg">
<path d="M8.50098 0.166504C13.1032 0.166504 16.8348 3.8973 16.835 8.49951C16.835 13.1019 13.1033 16.8335 8.50098 16.8335C3.89876 16.8333 0.167969 13.1018 0.167969 8.49951C0.168145 3.8974 3.89887 0.16668 8.50098 0.166504ZM8.50098 1.32959C4.54106 1.32977 1.33123 4.5396 1.33105 8.49951C1.33105 12.4596 4.54095 15.6702 8.50098 15.6704C12.4612 15.6704 15.6719 12.4597 15.6719 8.49951C15.6717 4.53949 12.461 1.32959 8.50098 1.32959ZM7.56055 5.21143C7.71712 5.23512 7.92937 5.30616 8.11719 5.38037C8.97143 5.71229 10.6439 6.83584 11.2832 7.51709L11.4697 7.71631L11.5361 7.79248C11.6719 7.96457 11.743 8.17607 11.7432 8.39209C11.7432 8.59555 11.6789 8.79704 11.5566 8.96338C11.5239 9.00803 11.4852 9.0514 11.3994 9.14307L11.1748 9.37646C10.498 10.0376 9.03313 11.0185 8.20117 11.3687C7.97019 11.4656 7.63763 11.576 7.47949 11.5796C7.10875 11.5913 6.75937 11.3864 6.58789 11.0552C6.543 10.9675 6.48742 10.7606 6.44531 10.5669L6.40234 10.3481C6.32507 9.87261 6.28336 9.15087 6.28418 8.39307L6.28516 8.15283C6.29282 7.43833 6.33837 6.78617 6.41602 6.36279C6.44701 6.19038 6.51596 5.8943 6.55566 5.79834C6.64217 5.59091 6.79808 5.42326 6.99121 5.31982C7.14035 5.23939 7.30963 5.19809 7.47363 5.20361L7.56055 5.21143ZM7.56738 6.53076L7.53906 6.69678C7.4802 7.09885 7.44659 7.7238 7.44727 8.39307L7.44824 8.62549C7.45519 9.23912 7.49189 9.80336 7.5498 10.1597L7.59082 10.355L7.75 10.2964C8.48614 9.98667 9.94765 8.99678 10.4424 8.46338L10.5088 8.39111L10.332 8.20947C9.73871 7.64147 8.34876 6.71814 7.69336 6.46338L7.58984 6.42627L7.56738 6.53076Z" fill="white"/>
</svg>
