<svg width="14" height="13" viewBox="0 0 14 13" fill="none" xmlns="http://www.w3.org/2000/svg">
<path d="M3.12109 12.6494C2.98849 12.6494 2.86131 12.5967 2.76754 12.503C2.67377 12.4092 2.62109 12.282 2.62109 12.1494V1.14941C2.62113 1.06162 2.64429 0.975376 2.68824 0.899367C2.73218 0.823359 2.79537 0.760263 2.87144 0.716425C2.94751 0.672586 3.03378 0.649552 3.12158 0.649638C3.20938 0.649724 3.29561 0.672927 3.37159 0.716914L12.8716 6.21691C12.9474 6.26087 13.0103 6.32395 13.054 6.39986C13.0977 6.47576 13.1207 6.56182 13.1207 6.64941C13.1207 6.73701 13.0977 6.82307 13.054 6.89897C13.0103 6.97487 12.9474 7.03796 12.8716 7.08191L3.37159 12.5819C3.29549 12.6261 3.20908 12.6493 3.12109 12.6494ZM0.121094 0.649414H1.12109V12.6494H0.121094V0.649414Z" fill="#FFB74D"/>
</svg>
