<svg width="16" height="16" viewBox="0 0 16 16" fill="none" xmlns="http://www.w3.org/2000/svg">
<path d="M12.6211 12.6494C10.4648 12.6494 7.62109 13.8994 7.62109 13.8994V7.02441C7.62109 7.02441 10.4336 5.77441 13.2461 5.77441L12.6211 12.6494Z" fill="white"/>
<path d="M2.62109 12.6494C4.77734 12.6494 7.62109 13.8994 7.62109 13.8994V7.02441C7.62109 7.02441 4.80859 5.77441 1.99609 5.77441L2.62109 12.6494Z" fill="white"/>
<path d="M7.62109 6.39941C9.00181 6.39941 10.1211 5.28013 10.1211 3.89941C10.1211 2.5187 9.00181 1.39941 7.62109 1.39941C6.24038 1.39941 5.12109 2.5187 5.12109 3.89941C5.12109 5.28013 6.24038 6.39941 7.62109 6.39941Z" fill="#FFB74D"/>
<path d="M12.9336 10.1494H13.2461C13.4336 10.1494 13.5586 10.0244 13.5586 9.83691V8.58691C13.5586 8.39941 13.4336 8.27441 13.2461 8.27441H12.9336C12.4023 8.27441 11.9961 8.68066 11.9961 9.21191C11.9961 9.74316 12.4023 10.1494 12.9336 10.1494ZM2.30859 8.27441H1.99609C1.80859 8.27441 1.68359 8.39941 1.68359 8.58691V9.83691C1.68359 10.0244 1.80859 10.1494 1.99609 10.1494H2.30859C2.83984 10.1494 3.24609 9.74316 3.24609 9.21191C3.24609 8.68066 2.83984 8.27441 2.30859 8.27441Z" fill="#FFB74D"/>
</svg>
