<svg width="15" height="17" viewBox="0 0 15 17" fill="none" xmlns="http://www.w3.org/2000/svg">
<path fill-rule="evenodd" clip-rule="evenodd" d="M4.28167 16.8332C3.93833 16.8332 3.6125 16.8065 3.30583 16.754L3.12417 16.7198C1.14833 16.309 0 14.7957 0 12.4923V4.50734C0 4.229 0.0166667 3.96234 0.05 3.70734C0.340833 1.46984 1.87833 0.166504 4.28167 0.166504H10.7192C13.3825 0.166504 14.975 1.7665 15 4.44317V4.50734V12.4923C15 15.2065 13.4033 16.8332 10.7192 16.8332H4.28167ZM4.28167 1.38067C2.235 1.38067 1.1975 2.43317 1.1975 4.50734V12.4923C1.1975 14.5665 2.235 15.619 4.28167 15.619H10.7117C12.7575 15.619 13.7883 14.5665 13.7883 12.4923V4.50734C13.7883 2.43317 12.7575 1.38067 10.7117 1.38067H4.28167ZM11.0883 12.0282C11.0883 11.6948 10.8225 11.4248 10.4942 11.4248H4.485C4.15667 11.4248 3.89 11.6948 3.89 12.0282C3.89 12.3615 4.15667 12.6315 4.485 12.6315H10.4942C10.8225 12.6315 11.0883 12.3615 11.0883 12.0282ZM10.4942 7.89234C10.7233 7.86734 10.9475 7.97734 11.07 8.17484C11.1925 8.374 11.1925 8.62567 11.07 8.82484C10.9475 9.02234 10.7233 9.13234 10.4942 9.10734H4.485C4.18 9.07234 3.94917 8.8115 3.94917 8.49984C3.94917 8.18817 4.18 7.9265 4.485 7.89234H10.4942ZM7.31417 4.97567C7.31417 4.664 7.08333 4.40234 6.77833 4.36817H4.4925C4.18667 4.40234 3.95583 4.664 3.95583 4.97567C3.95583 5.2865 4.18667 5.54817 4.4925 5.58234H6.77833C7.08333 5.54817 7.31417 5.2865 7.31417 4.97567Z" fill="#008591"/>
</svg>
