<svg width="20" height="20" viewBox="0 0 20 20" fill="none" xmlns="http://www.w3.org/2000/svg">
<path d="M14.334 0C17.7378 0 20 2.42952 20 5.91602V14.084C20 17.5707 17.7376 20 14.333 20H5.66504C2.26074 20 0 17.571 0 14.084V5.91602C0 2.43261 2.26746 0 5.66504 0H14.334ZM5.66504 1.5C3.12038 1.5 1.5 3.23839 1.5 5.91602V14.084C1.5 16.7657 3.11418 18.5 5.66504 18.5H14.333C16.8844 18.5 18.5 16.7651 18.5 14.084V5.91602C18.5 3.23498 16.8845 1.5 14.334 1.5H5.66504ZM10 4.88379C10.3794 4.88399 10.6933 5.1655 10.7432 5.53125L10.75 5.63379L10.749 9.56738L13.7744 11.373C14.1004 11.5675 14.2258 11.9708 14.0811 12.3105L14.0352 12.4014C13.8407 12.7273 13.4374 12.8526 13.0977 12.708L13.0068 12.6611L9.61523 10.6387C9.42089 10.5227 9.29098 10.3264 9.25781 10.1064L9.25 9.99414V5.63379C9.25 5.21958 9.58579 4.88379 10 4.88379Z" fill="#2E2E5D"/>
</svg>
