<svg width="21" height="21" viewBox="0 0 21 21" fill="none" xmlns="http://www.w3.org/2000/svg">
<path d="M0.0234375 11.6694C0.0234375 9.2902 1.8977 7.34779 4.25 7.23877L4.45801 7.23389H5.3916C5.80569 7.23398 6.14153 7.56979 6.1416 7.98389C6.1416 8.36358 5.85924 8.67739 5.49316 8.72705L5.3916 8.73389H4.45801C2.8953 8.73411 1.61759 9.95618 1.52832 11.4966L1.52344 11.6694L1.52344 16.5444C1.52365 18.1063 2.74582 19.3839 4.28613 19.4731L4.45801 19.478H15.5889C17.1515 19.4778 18.4293 18.2559 18.5186 16.7163L18.5234 16.5444V11.6587C18.5233 10.1016 17.3059 8.82788 15.7715 8.73877L15.5996 8.73389H14.6562C14.2421 8.73379 13.9062 8.39804 13.9062 7.98389C13.9063 7.60425 14.1887 7.29038 14.5547 7.24072L14.6562 7.23389H15.5996C17.9708 7.23398 19.9067 9.10104 20.0186 11.4448L20.0234 11.6587V16.5444C20.0232 18.9227 18.1489 20.8641 15.7969 20.9731L15.5889 20.978H4.45801C2.07915 20.9778 0.137348 19.1038 0.0283203 16.7524L0.0234375 16.5444L0.0234375 11.6694ZM6.5791 4.6499C6.31257 4.38435 6.2871 3.96831 6.50391 3.67432L6.57715 3.58936L9.49219 0.661621C9.5255 0.628193 9.56113 0.598583 9.59863 0.572754L9.60449 0.568848C9.61328 0.562918 9.62377 0.559763 9.63281 0.554199C9.66259 0.535904 9.6921 0.518147 9.72363 0.504395C9.74136 0.496641 9.75991 0.491255 9.77832 0.484863C9.80298 0.476328 9.82727 0.467314 9.85254 0.461426C9.88876 0.452974 9.92584 0.447815 9.96387 0.444824C9.96973 0.444361 9.97557 0.444174 9.98145 0.443848C9.99535 0.443079 10.0093 0.440918 10.0234 0.440918C10.0353 0.44092 10.0469 0.444281 10.0586 0.444824C10.0832 0.445982 10.1074 0.448095 10.1318 0.45166C10.1544 0.454945 10.1764 0.459106 10.1982 0.464355C10.218 0.469099 10.2374 0.474586 10.2568 0.480957C10.2807 0.488796 10.3035 0.498201 10.3262 0.508301C10.3443 0.516331 10.3623 0.524157 10.3799 0.533691C10.4006 0.544949 10.42 0.557709 10.4395 0.570801C10.4493 0.57741 10.4611 0.581255 10.4707 0.588379L10.499 0.61377C10.5106 0.623356 10.5222 0.632811 10.5332 0.643066L10.5547 0.661621L13.4707 3.58936C13.7629 3.88275 13.7619 4.35759 13.4688 4.6499C13.2021 4.9155 12.7853 4.93932 12.4922 4.72119L12.4082 4.64795L10.7734 3.0083L10.7734 13.2319C10.7732 13.6459 10.4375 13.9819 10.0234 13.9819C9.64381 13.9819 9.33003 13.6995 9.28027 13.3335L9.27344 13.2319L9.27344 3.00635L7.63965 4.64795C7.37397 4.91477 6.95717 4.94034 6.66309 4.72314L6.5791 4.6499Z" fill="#2E2E5D"/>
</svg>
